<svg width="859" height="300" viewBox="0 0 859 300" fill="none" xmlns="http://www.w3.org/2000/svg">
<g clip-path="url(#clip0_6_15)">
<rect width="859" height="300" fill="white"/>
<path d="M56.402 84V56.3636H67.3054C69.4015 56.3636 71.1873 56.764 72.6626 57.5646C74.138 58.3563 75.2625 59.4583 76.0362 60.8707C76.8189 62.2741 77.2102 63.8935 77.2102 65.7287C77.2102 67.5639 76.8144 69.1832 76.0227 70.5866C75.2311 71.9901 74.084 73.0831 72.5817 73.8658C71.0883 74.6484 69.2801 75.0398 67.157 75.0398H60.2074V70.3572H66.2124C67.3369 70.3572 68.2635 70.1638 68.9922 69.777C69.7299 69.3812 70.2786 68.8369 70.6385 68.1442C71.0073 67.4425 71.1918 66.6373 71.1918 65.7287C71.1918 64.8111 71.0073 64.0104 70.6385 63.3267C70.2786 62.634 69.7299 62.0987 68.9922 61.7209C68.2545 61.334 67.3189 61.1406 66.1854 61.1406H62.245V84H56.402ZM80.1375 84V63.2727H85.7107V66.8892H85.9266C86.3045 65.6027 86.9387 64.6312 87.8293 63.9744C88.7199 63.3087 89.7455 62.9759 90.906 62.9759C91.1939 62.9759 91.5043 62.9938 91.8371 63.0298C92.17 63.0658 92.4624 63.1153 92.7143 63.1783V68.2791C92.4444 68.1982 92.071 68.1262 91.5942 68.0632C91.1174 68.0002 90.6811 67.9688 90.2853 67.9688C89.4396 67.9688 88.684 68.1532 88.0182 68.522C87.3615 68.8819 86.8397 69.3857 86.4529 70.0334C86.075 70.6811 85.8861 71.4278 85.8861 72.2734V84H80.1375ZM103.327 84.4048C101.23 84.4048 99.4177 83.9595 97.8884 83.0689C96.368 82.1693 95.194 80.9188 94.3664 79.3175C93.5387 77.7071 93.1249 75.8404 93.1249 73.7173C93.1249 71.5762 93.5387 69.705 94.3664 68.1037C95.194 66.4934 96.368 65.2429 97.8884 64.3523C99.4177 63.4527 101.23 63.0028 103.327 63.0028C105.423 63.0028 107.231 63.4527 108.751 64.3523C110.281 65.2429 111.459 66.4934 112.287 68.1037C113.114 69.705 113.528 71.5762 113.528 73.7173C113.528 75.8404 113.114 77.7071 112.287 79.3175C111.459 80.9188 110.281 82.1693 108.751 83.0689C107.231 83.9595 105.423 84.4048 103.327 84.4048ZM103.354 79.9517C104.307 79.9517 105.103 79.6818 105.742 79.142C106.381 78.5933 106.862 77.8466 107.186 76.902C107.519 75.9574 107.685 74.8823 107.685 73.6768C107.685 72.4714 107.519 71.3963 107.186 70.4517C106.862 69.5071 106.381 68.7604 105.742 68.2116C105.103 67.6629 104.307 67.3885 103.354 67.3885C102.391 67.3885 101.581 67.6629 100.925 68.2116C100.277 68.7604 99.7866 69.5071 99.4537 70.4517C99.1299 71.3963 98.9679 72.4714 98.9679 73.6768C98.9679 74.8823 99.1299 75.9574 99.4537 76.902C99.7866 77.8466 100.277 78.5933 100.925 79.142C101.581 79.6818 102.391 79.9517 103.354 79.9517ZM122.255 72.017V84H116.506V63.2727H121.985V66.9297H122.228C122.687 65.7242 123.456 64.7706 124.535 64.0689C125.615 63.3582 126.924 63.0028 128.462 63.0028C129.902 63.0028 131.157 63.3177 132.227 63.9474C133.298 64.5772 134.13 65.4768 134.724 66.6463C135.317 67.8068 135.614 69.1922 135.614 70.8026V84H129.866V71.8281C129.875 70.5597 129.551 69.5701 128.894 68.8594C128.237 68.1397 127.333 67.7798 126.182 67.7798C125.408 67.7798 124.724 67.9463 124.131 68.2791C123.546 68.612 123.087 69.0978 122.754 69.7365C122.43 70.3662 122.264 71.1264 122.255 72.017ZM150.41 63.2727V67.5909H137.928V63.2727H150.41ZM140.761 58.3068H146.51V77.6307C146.51 78.1615 146.591 78.5753 146.753 78.8722C146.915 79.16 147.14 79.3625 147.428 79.4794C147.724 79.5964 148.066 79.6548 148.453 79.6548C148.723 79.6548 148.993 79.6323 149.263 79.5874C149.533 79.5334 149.74 79.4929 149.883 79.4659L150.788 83.7436C150.5 83.8336 150.095 83.937 149.573 84.054C149.051 84.1799 148.417 84.2564 147.67 84.2834C146.285 84.3374 145.07 84.1529 144.027 83.7301C142.992 83.3073 142.187 82.6506 141.611 81.7599C141.036 80.8693 140.752 79.7448 140.761 78.3864V58.3068ZM162.537 84.4048C160.441 84.4048 158.628 83.9595 157.099 83.0689C155.578 82.1693 154.404 80.9188 153.577 79.3175C152.749 77.7071 152.335 75.8404 152.335 73.7173C152.335 71.5762 152.749 69.705 153.577 68.1037C154.404 66.4934 155.578 65.2429 157.099 64.3523C158.628 63.4527 160.441 63.0028 162.537 63.0028C164.633 63.0028 166.441 63.4527 167.962 64.3523C169.491 65.2429 170.669 66.4934 171.497 68.1037C172.325 69.705 172.739 71.5762 172.739 73.7173C172.739 75.8404 172.325 77.7071 171.497 79.3175C170.669 80.9188 169.491 82.1693 167.962 83.0689C166.441 83.9595 164.633 84.4048 162.537 84.4048ZM162.564 79.9517C163.517 79.9517 164.314 79.6818 164.952 79.142C165.591 78.5933 166.072 77.8466 166.396 76.902C166.729 75.9574 166.895 74.8823 166.895 73.6768C166.895 72.4714 166.729 71.3963 166.396 70.4517C166.072 69.5071 165.591 68.7604 164.952 68.2116C164.314 67.6629 163.517 67.3885 162.564 67.3885C161.601 67.3885 160.792 67.6629 160.135 68.2116C159.487 68.7604 158.997 69.5071 158.664 70.4517C158.34 71.3963 158.178 72.4714 158.178 73.6768C158.178 74.8823 158.34 75.9574 158.664 76.902C158.997 77.8466 159.487 78.5933 160.135 79.142C160.792 79.6818 161.601 79.9517 162.564 79.9517ZM186.863 63.2727V67.5909H174.07V63.2727H186.863ZM176.998 84V61.7749C176.998 60.2725 177.291 59.0265 177.876 58.0369C178.469 57.0473 179.279 56.3052 180.305 55.8104C181.33 55.3156 182.495 55.0682 183.8 55.0682C184.681 55.0682 185.486 55.1357 186.215 55.2706C186.953 55.4055 187.501 55.527 187.861 55.6349L186.836 59.9531C186.611 59.8812 186.332 59.8137 185.999 59.7507C185.675 59.6877 185.342 59.6562 185.001 59.6562C184.155 59.6562 183.566 59.8542 183.233 60.25C182.9 60.6368 182.734 61.1811 182.734 61.8828V84H176.998ZM198.238 84.4048C196.141 84.4048 194.329 83.9595 192.799 83.0689C191.279 82.1693 190.105 80.9188 189.277 79.3175C188.45 77.7071 188.036 75.8404 188.036 73.7173C188.036 71.5762 188.45 69.705 189.277 68.1037C190.105 66.4934 191.279 65.2429 192.799 64.3523C194.329 63.4527 196.141 63.0028 198.238 63.0028C200.334 63.0028 202.142 63.4527 203.662 64.3523C205.192 65.2429 206.37 66.4934 207.198 68.1037C208.025 69.705 208.439 71.5762 208.439 73.7173C208.439 75.8404 208.025 77.7071 207.198 79.3175C206.37 80.9188 205.192 82.1693 203.662 83.0689C202.142 83.9595 200.334 84.4048 198.238 84.4048ZM198.265 79.9517C199.218 79.9517 200.014 79.6818 200.653 79.142C201.292 78.5933 201.773 77.8466 202.097 76.902C202.43 75.9574 202.596 74.8823 202.596 73.6768C202.596 72.4714 202.43 71.3963 202.097 70.4517C201.773 69.5071 201.292 68.7604 200.653 68.2116C200.014 67.6629 199.218 67.3885 198.265 67.3885C197.302 67.3885 196.492 67.6629 195.836 68.2116C195.188 68.7604 194.698 69.5071 194.365 70.4517C194.041 71.3963 193.879 72.4714 193.879 73.6768C193.879 74.8823 194.041 75.9574 194.365 76.902C194.698 77.8466 195.188 78.5933 195.836 79.142C196.492 79.6818 197.302 79.9517 198.265 79.9517ZM196.173 60.6009L199.034 54.4609H204.35L200.235 60.6009H196.173ZM217.166 56.3636V84H211.417V56.3636H217.166ZM221.011 84V63.2727H226.759V84H221.011ZM223.898 60.6009C223.044 60.6009 222.311 60.3175 221.699 59.7507C221.096 59.175 220.795 58.4867 220.795 57.6861C220.795 56.8944 221.096 56.2152 221.699 55.6484C222.311 55.0727 223.044 54.7848 223.898 54.7848C224.753 54.7848 225.482 55.0727 226.085 55.6484C226.696 56.2152 227.002 56.8944 227.002 57.6861C227.002 58.4867 226.696 59.175 226.085 59.7507C225.482 60.3175 224.753 60.6009 223.898 60.6009ZM239.969 84.4048C237.873 84.4048 236.06 83.9595 234.531 83.0689C233.011 82.1693 231.837 80.9188 231.009 79.3175C230.181 77.7071 229.768 75.8404 229.768 73.7173C229.768 71.5762 230.181 69.705 231.009 68.1037C231.837 66.4934 233.011 65.2429 234.531 64.3523C236.06 63.4527 237.873 63.0028 239.969 63.0028C242.065 63.0028 243.874 63.4527 245.394 64.3523C246.923 65.2429 248.102 66.4934 248.929 68.1037C249.757 69.705 250.171 71.5762 250.171 73.7173C250.171 75.8404 249.757 77.7071 248.929 79.3175C248.102 80.9188 246.923 82.1693 245.394 83.0689C243.874 83.9595 242.065 84.4048 239.969 84.4048ZM239.996 79.9517C240.95 79.9517 241.746 79.6818 242.385 79.142C243.023 78.5933 243.505 77.8466 243.829 76.902C244.161 75.9574 244.328 74.8823 244.328 73.6768C244.328 72.4714 244.161 71.3963 243.829 70.4517C243.505 69.5071 243.023 68.7604 242.385 68.2116C241.746 67.6629 240.95 67.3885 239.996 67.3885C239.034 67.3885 238.224 67.6629 237.567 68.2116C236.92 68.7604 236.429 69.5071 236.096 70.4517C235.773 71.3963 235.611 72.4714 235.611 73.6768C235.611 74.8823 235.773 75.9574 236.096 76.902C236.429 77.8466 236.92 78.5933 237.567 79.142C238.224 79.6818 239.034 79.9517 239.996 79.9517Z" fill="#3B82F6"/>
<path d="M68.2045 101H66.4716C66.4527 100.493 66.3485 100.048 66.1591 99.6648C65.9697 99.2812 65.714 98.9593 65.392 98.6989C65.0748 98.4337 64.7102 98.2348 64.2983 98.1023C63.8864 97.9697 63.446 97.9034 62.9773 97.9034C62.0777 97.9034 61.2254 98.133 60.4205 98.5923C59.6155 99.0469 58.9266 99.7169 58.3537 100.602C57.7808 101.483 57.3902 102.562 57.1818 103.841C56.9735 105.081 57.0043 106.125 57.2741 106.973C57.544 107.821 57.9915 108.462 58.6165 108.898C59.2415 109.333 59.9848 109.551 60.8466 109.551C61.3438 109.551 61.8314 109.485 62.3097 109.352C62.7926 109.22 63.2424 109.023 63.6591 108.763C64.0805 108.498 64.4545 108.173 64.7812 107.79C65.1127 107.402 65.3731 106.956 65.5625 106.455H67.3239C67.0634 107.198 66.7107 107.863 66.2656 108.45C65.8253 109.037 65.3163 109.537 64.7386 109.949C64.161 110.356 63.5384 110.666 62.8707 110.879C62.2031 111.092 61.5095 111.199 60.7898 111.199C59.5303 111.199 58.4579 110.891 57.5724 110.276C56.6918 109.655 56.062 108.779 55.6832 107.648C55.3092 106.511 55.25 105.167 55.5057 103.614C55.7614 102.098 56.2514 100.792 56.9759 99.6932C57.7003 98.59 58.5881 97.7424 59.6392 97.1506C60.6903 96.554 61.8314 96.2557 63.0625 96.2557C63.8011 96.2557 64.4806 96.3622 65.1009 96.5753C65.7211 96.7884 66.2609 97.1009 66.7202 97.5128C67.1795 97.92 67.5369 98.4171 67.7926 99.0043C68.053 99.5866 68.1903 100.252 68.2045 101ZM68.7758 111L70.594 100.091H72.2133L71.9292 101.739H72.0428C72.3269 101.199 72.7602 100.761 73.3425 100.425C73.9249 100.089 74.5428 99.9205 75.1962 99.9205C75.3241 99.9205 75.478 99.9228 75.6579 99.9276C75.8378 99.9276 75.9775 99.9347 76.0769 99.9489L75.7928 101.653C75.736 101.639 75.6082 101.618 75.4093 101.589C75.2104 101.556 74.9974 101.54 74.7701 101.54C74.2398 101.54 73.7497 101.651 73.2999 101.874C72.8501 102.091 72.4737 102.394 72.1707 102.783C71.8676 103.166 71.6735 103.604 71.5883 104.097L70.4519 111H68.7758ZM75.8563 111L77.6744 100.091H79.3506L77.5324 111H75.8563ZM79.0239 98.2443C78.6972 98.2443 78.4154 98.133 78.1787 97.9105C77.9467 97.688 77.8307 97.4205 77.8307 97.108C77.8307 96.7955 77.9467 96.5279 78.1787 96.3054C78.4154 96.0829 78.6972 95.9716 79.0239 95.9716C79.3506 95.9716 79.6299 96.0829 79.8619 96.3054C80.0987 96.5279 80.217 96.7955 80.217 97.108C80.217 97.4205 80.0987 97.688 79.8619 97.9105C79.6299 98.133 79.3506 98.2443 79.0239 98.2443ZM84.7478 111.227C83.7014 111.227 82.8373 110.995 82.1555 110.531C81.4736 110.062 80.9978 109.409 80.7279 108.571C80.458 107.728 80.4154 106.748 80.6001 105.631C80.7847 104.513 81.1517 103.528 81.7009 102.676C82.2502 101.819 82.9344 101.152 83.7535 100.673C84.5726 100.19 85.4722 99.9489 86.4523 99.9489C87.0205 99.9489 87.5674 100.044 88.093 100.233C88.6185 100.422 89.0731 100.73 89.4566 101.156C89.8401 101.578 90.1076 102.136 90.2592 102.832C90.4107 103.528 90.4012 104.385 90.2308 105.403L90.1171 106.114H81.708L81.9353 104.665H88.6398C88.7487 104.049 88.7203 103.5 88.5546 103.017C88.3936 102.534 88.1119 102.153 87.7094 101.874C87.3117 101.594 86.8075 101.455 86.1967 101.455C85.5669 101.455 84.9798 101.625 84.4353 101.966C83.8908 102.302 83.4362 102.728 83.0717 103.244C82.7071 103.756 82.4798 104.277 82.3898 104.807L82.191 106.057C82.0489 106.961 82.0702 107.681 82.2549 108.216C82.4443 108.751 82.7734 109.137 83.2421 109.374C83.7109 109.606 84.298 109.722 85.0035 109.722C85.4533 109.722 85.8676 109.66 86.2464 109.537C86.6252 109.409 86.9637 109.22 87.262 108.969C87.5603 108.713 87.8112 108.396 88.0148 108.017L89.5489 108.472C89.2885 109.021 88.9216 109.504 88.4481 109.92C87.9793 110.332 87.4301 110.654 86.8004 110.886C86.1754 111.114 85.4912 111.227 84.7478 111.227ZM105.855 102.534L104.264 102.96C104.207 102.705 104.108 102.458 103.966 102.222C103.828 101.98 103.615 101.784 103.326 101.632C103.042 101.476 102.654 101.398 102.162 101.398C101.494 101.398 100.914 101.552 100.422 101.859C99.9291 102.162 99.6474 102.548 99.5763 103.017C99.5053 103.429 99.6 103.758 99.8604 104.004C100.121 104.25 100.556 104.452 101.167 104.608L102.73 105.006C103.667 105.247 104.335 105.609 104.733 106.092C105.135 106.571 105.272 107.193 105.145 107.96C105.04 108.585 104.768 109.144 104.328 109.636C103.887 110.129 103.324 110.517 102.637 110.801C101.951 111.085 101.186 111.227 100.343 111.227C99.2212 111.227 98.3358 110.986 97.6871 110.503C97.0385 110.015 96.6928 109.31 96.6502 108.386L98.3263 107.989C98.369 108.571 98.5773 109.011 98.9513 109.31C99.3301 109.603 99.8604 109.75 100.542 109.75C101.324 109.75 101.975 109.584 102.495 109.253C103.016 108.917 103.312 108.514 103.383 108.045C103.454 107.662 103.378 107.342 103.156 107.087C102.938 106.831 102.559 106.639 102.02 106.511L100.287 106.085C99.3207 105.844 98.6436 105.474 98.2553 104.977C97.8718 104.48 97.744 103.855 97.8718 103.102C97.976 102.487 98.2411 101.942 98.6673 101.469C99.0981 100.995 99.6379 100.624 100.287 100.354C100.94 100.084 101.65 99.9489 102.417 99.9489C103.497 99.9489 104.304 100.186 104.839 100.659C105.374 101.128 105.713 101.753 105.855 102.534ZM111.302 111.227C110.255 111.227 109.391 110.995 108.709 110.531C108.028 110.062 107.552 109.409 107.282 108.571C107.012 107.728 106.969 106.748 107.154 105.631C107.339 104.513 107.706 103.528 108.255 102.676C108.804 101.819 109.488 101.152 110.307 100.673C111.127 100.19 112.026 99.9489 113.006 99.9489C113.574 99.9489 114.121 100.044 114.647 100.233C115.172 100.422 115.627 100.73 116.011 101.156C116.394 101.578 116.662 102.136 116.813 102.832C116.965 103.528 116.955 104.385 116.785 105.403L116.671 106.114H108.262L108.489 104.665H115.194C115.303 104.049 115.274 103.5 115.109 103.017C114.948 102.534 114.666 102.153 114.263 101.874C113.866 101.594 113.361 101.455 112.751 101.455C112.121 101.455 111.534 101.625 110.989 101.966C110.445 102.302 109.99 102.728 109.626 103.244C109.261 103.756 109.034 104.277 108.944 104.807L108.745 106.057C108.603 106.961 108.624 107.681 108.809 108.216C108.998 108.751 109.327 109.137 109.796 109.374C110.265 109.606 110.852 109.722 111.557 109.722C112.007 109.722 112.421 109.66 112.8 109.537C113.179 109.409 113.518 109.22 113.816 108.969C114.114 108.713 114.365 108.396 114.569 108.017L116.103 108.472C115.842 109.021 115.475 109.504 115.002 109.92C114.533 110.332 113.984 110.654 113.354 110.886C112.729 111.114 112.045 111.227 111.302 111.227ZM125.65 106.54L126.729 100.091H128.405L126.587 111H124.911L125.223 109.153H125.11C124.769 109.707 124.293 110.179 123.682 110.567C123.071 110.95 122.354 111.142 121.53 111.142C120.848 111.142 120.266 110.993 119.783 110.695C119.305 110.392 118.964 109.937 118.76 109.331C118.562 108.72 118.538 107.951 118.689 107.023L119.854 100.091H121.53L120.394 106.909C120.266 107.705 120.387 108.339 120.756 108.812C121.125 109.286 121.658 109.523 122.354 109.523C122.771 109.523 123.211 109.416 123.675 109.203C124.144 108.99 124.561 108.663 124.925 108.223C125.294 107.783 125.536 107.222 125.65 106.54ZM133.8 115.091L136.314 100.091H137.934L137.65 101.824H137.849C138 101.634 138.208 101.393 138.474 101.099C138.743 100.801 139.106 100.536 139.56 100.304C140.019 100.067 140.604 99.9489 141.314 99.9489C142.233 99.9489 143.002 100.179 143.623 100.638C144.243 101.097 144.681 101.748 144.937 102.591C145.192 103.434 145.225 104.428 145.036 105.574C144.847 106.729 144.484 107.731 143.949 108.578C143.414 109.421 142.761 110.074 141.989 110.538C141.217 110.998 140.377 111.227 139.468 111.227C138.767 111.227 138.225 111.111 137.841 110.879C137.458 110.643 137.179 110.375 137.003 110.077C136.828 109.774 136.693 109.523 136.599 109.324H136.456L135.491 115.091H133.8ZM137.053 105.545C136.92 106.369 136.92 107.096 137.053 107.726C137.19 108.351 137.463 108.841 137.87 109.196C138.282 109.546 138.824 109.722 139.496 109.722C140.197 109.722 140.81 109.537 141.336 109.168C141.866 108.794 142.302 108.292 142.643 107.662C142.988 107.027 143.227 106.322 143.36 105.545C143.483 104.778 143.478 104.087 143.346 103.472C143.213 102.851 142.943 102.361 142.536 102.001C142.129 101.637 141.57 101.455 140.86 101.455C140.178 101.455 139.574 101.627 139.049 101.973C138.528 102.314 138.097 102.792 137.756 103.408C137.42 104.018 137.186 104.731 137.053 105.545ZM150.792 111.227C149.788 111.227 148.948 110.988 148.271 110.51C147.594 110.032 147.115 109.362 146.836 108.5C146.561 107.638 146.516 106.634 146.701 105.489C146.881 104.371 147.238 103.398 147.773 102.57C148.313 101.736 148.983 101.092 149.783 100.638C150.588 100.179 151.474 99.9489 152.44 99.9489C153.443 99.9489 154.281 100.19 154.954 100.673C155.631 101.152 156.109 101.824 156.388 102.69C156.668 103.552 156.715 104.561 156.531 105.716C156.351 106.824 155.988 107.792 155.444 108.621C154.904 109.445 154.234 110.086 153.434 110.545C152.638 111 151.758 111.227 150.792 111.227ZM150.82 109.722C151.587 109.722 152.253 109.525 152.816 109.132C153.384 108.739 153.844 108.221 154.194 107.577C154.549 106.933 154.788 106.237 154.911 105.489C155.025 104.778 155.02 104.118 154.897 103.507C154.774 102.892 154.511 102.397 154.109 102.023C153.706 101.644 153.14 101.455 152.411 101.455C151.644 101.455 150.974 101.653 150.401 102.051C149.833 102.449 149.374 102.972 149.023 103.621C148.673 104.269 148.439 104.968 148.32 105.716C148.207 106.426 148.209 107.087 148.327 107.697C148.451 108.304 148.713 108.794 149.116 109.168C149.523 109.537 150.091 109.722 150.82 109.722ZM157.823 111L159.641 100.091H161.26L160.976 101.739H161.09C161.374 101.199 161.807 100.761 162.389 100.425C162.972 100.089 163.59 99.9205 164.243 99.9205C164.371 99.9205 164.525 99.9228 164.705 99.9276C164.885 99.9276 165.024 99.9347 165.124 99.9489L164.84 101.653C164.783 101.639 164.655 101.618 164.456 101.589C164.257 101.556 164.044 101.54 163.817 101.54C163.287 101.54 162.797 101.651 162.347 101.874C161.897 102.091 161.521 102.394 161.218 102.783C160.915 103.166 160.72 103.604 160.635 104.097L159.499 111H157.823ZM172.149 100.091L171.922 101.511H166.269L166.496 100.091H172.149ZM168.57 97.4773H170.246L168.513 107.875C168.437 108.348 168.449 108.704 168.548 108.94C168.653 109.172 168.809 109.329 169.017 109.409C169.23 109.485 169.46 109.523 169.706 109.523C169.891 109.523 170.042 109.513 170.161 109.494C170.279 109.471 170.374 109.452 170.445 109.438L170.558 110.943C170.43 110.986 170.258 111.028 170.04 111.071C169.827 111.118 169.564 111.142 169.251 111.142C168.778 111.142 168.333 111.04 167.916 110.837C167.5 110.633 167.18 110.323 166.957 109.906C166.735 109.49 166.676 108.964 166.78 108.33L168.57 97.4773ZM179.128 100.091L178.901 101.511H173.021L173.248 100.091H179.128ZM173.191 111L175.265 98.5852C175.36 97.9602 175.587 97.4394 175.947 97.0227C176.311 96.6061 176.744 96.2936 177.246 96.0852C177.753 95.8769 178.267 95.7727 178.788 95.7727C179.2 95.7727 179.529 95.8059 179.775 95.8722C180.026 95.9384 180.208 96 180.322 96.0568L179.611 97.5057C179.526 97.4773 179.413 97.4418 179.271 97.3991C179.133 97.3565 178.944 97.3352 178.702 97.3352C178.148 97.3352 177.727 97.4749 177.438 97.7543C177.149 98.0336 176.955 98.4432 176.856 98.983L174.867 111H173.191ZM183.313 111.227C182.309 111.227 181.469 110.988 180.792 110.51C180.115 110.032 179.636 109.362 179.357 108.5C179.082 107.638 179.037 106.634 179.222 105.489C179.402 104.371 179.759 103.398 180.295 102.57C180.834 101.736 181.504 101.092 182.304 100.638C183.109 100.179 183.995 99.9489 184.961 99.9489C185.965 99.9489 186.803 100.19 187.475 100.673C188.152 101.152 188.63 101.824 188.91 102.69C189.189 103.552 189.236 104.561 189.052 105.716C188.872 106.824 188.509 107.792 187.965 108.621C187.425 109.445 186.755 110.086 185.955 110.545C185.16 111 184.279 111.227 183.313 111.227ZM183.341 109.722C184.108 109.722 184.774 109.525 185.337 109.132C185.905 108.739 186.365 108.221 186.715 107.577C187.07 106.933 187.309 106.237 187.432 105.489C187.546 104.778 187.541 104.118 187.418 103.507C187.295 102.892 187.032 102.397 186.63 102.023C186.227 101.644 185.661 101.455 184.932 101.455C184.165 101.455 183.495 101.653 182.922 102.051C182.354 102.449 181.895 102.972 181.545 103.621C181.194 104.269 180.96 104.968 180.841 105.716C180.728 106.426 180.73 107.087 180.849 107.697C180.972 108.304 181.234 108.794 181.637 109.168C182.044 109.537 182.612 109.722 183.341 109.722ZM184.535 98.6136L186.807 95.3182H188.768L186.012 98.6136H184.535ZM194.435 96.4545L192.02 111H190.344L192.759 96.4545H194.435ZM194.69 111L196.508 100.091H198.184L196.366 111H194.69ZM197.857 98.2443C197.531 98.2443 197.249 98.133 197.012 97.9105C196.78 97.688 196.664 97.4205 196.664 97.108C196.664 96.7955 196.78 96.5279 197.012 96.3054C197.249 96.0829 197.531 95.9716 197.857 95.9716C198.184 95.9716 198.464 96.0829 198.696 96.3054C198.932 96.5279 199.051 96.7955 199.051 97.108C199.051 97.4205 198.932 97.688 198.696 97.9105C198.464 98.133 198.184 98.2443 197.857 98.2443ZM203.539 111.227C202.535 111.227 201.695 110.988 201.017 110.51C200.34 110.032 199.862 109.362 199.583 108.5C199.308 107.638 199.263 106.634 199.448 105.489C199.628 104.371 199.985 103.398 200.52 102.57C201.06 101.736 201.73 101.092 202.53 100.638C203.335 100.179 204.221 99.9489 205.187 99.9489C206.19 99.9489 207.028 100.19 207.701 100.673C208.378 101.152 208.856 101.824 209.135 102.69C209.415 103.552 209.462 104.561 209.277 105.716C209.097 106.824 208.735 107.792 208.191 108.621C207.651 109.445 206.981 110.086 206.181 110.545C205.385 111 204.505 111.227 203.539 111.227ZM203.567 109.722C204.334 109.722 204.999 109.525 205.563 109.132C206.131 108.739 206.59 108.221 206.941 107.577C207.296 106.933 207.535 106.237 207.658 105.489C207.772 104.778 207.767 104.118 207.644 103.507C207.521 102.892 207.258 102.397 206.856 102.023C206.453 101.644 205.887 101.455 205.158 101.455C204.391 101.455 203.721 101.653 203.148 102.051C202.58 102.449 202.121 102.972 201.77 103.621C201.42 104.269 201.186 104.968 201.067 105.716C200.954 106.426 200.956 107.087 201.074 107.697C201.197 108.304 201.46 108.794 201.863 109.168C202.27 109.537 202.838 109.722 203.567 109.722ZM215.113 115.091L217.627 100.091H219.246L218.962 101.824H219.161C219.313 101.634 219.521 101.393 219.786 101.099C220.056 100.801 220.418 100.536 220.873 100.304C221.332 100.067 221.917 99.9489 222.627 99.9489C223.545 99.9489 224.315 100.179 224.935 100.638C225.555 101.097 225.993 101.748 226.249 102.591C226.505 103.434 226.538 104.428 226.349 105.574C226.159 106.729 225.797 107.731 225.262 108.578C224.727 109.421 224.073 110.074 223.302 110.538C222.53 110.998 221.689 111.227 220.78 111.227C220.08 111.227 219.537 111.111 219.154 110.879C218.77 110.643 218.491 110.375 218.316 110.077C218.141 109.774 218.006 109.523 217.911 109.324H217.769L216.803 115.091H215.113ZM218.366 105.545C218.233 106.369 218.233 107.096 218.366 107.726C218.503 108.351 218.775 108.841 219.182 109.196C219.594 109.546 220.136 109.722 220.809 109.722C221.509 109.722 222.123 109.537 222.648 109.168C223.179 108.794 223.614 108.292 223.955 107.662C224.301 107.027 224.54 106.322 224.672 105.545C224.795 104.778 224.791 104.087 224.658 103.472C224.526 102.851 224.256 102.361 223.849 102.001C223.441 101.637 222.883 101.455 222.172 101.455C221.491 101.455 220.887 101.627 220.361 101.973C219.84 102.314 219.41 102.792 219.069 103.408C218.732 104.018 218.498 104.731 218.366 105.545ZM227.602 111L229.42 100.091H231.039L230.755 101.739H230.869C231.153 101.199 231.586 100.761 232.168 100.425C232.751 100.089 233.369 99.9205 234.022 99.9205C234.15 99.9205 234.304 99.9228 234.484 99.9276C234.664 99.9276 234.803 99.9347 234.903 99.9489L234.619 101.653C234.562 101.639 234.434 101.618 234.235 101.589C234.036 101.556 233.823 101.54 233.596 101.54C233.066 101.54 232.576 101.651 232.126 101.874C231.676 102.091 231.299 102.394 230.996 102.783C230.693 103.166 230.499 103.604 230.414 104.097L229.278 111H227.602ZM238.853 111.227C237.849 111.227 237.009 110.988 236.332 110.51C235.654 110.032 235.176 109.362 234.897 108.5C234.622 107.638 234.577 106.634 234.762 105.489C234.942 104.371 235.299 103.398 235.834 102.57C236.374 101.736 237.044 101.092 237.844 100.638C238.649 100.179 239.535 99.9489 240.501 99.9489C241.504 99.9489 242.342 100.19 243.015 100.673C243.692 101.152 244.17 101.824 244.449 102.69C244.729 103.552 244.776 104.561 244.591 105.716C244.412 106.824 244.049 107.792 243.505 108.621C242.965 109.445 242.295 110.086 241.495 110.545C240.699 111 239.819 111.227 238.853 111.227ZM238.881 109.722C239.648 109.722 240.314 109.525 240.877 109.132C241.445 108.739 241.904 108.221 242.255 107.577C242.61 106.933 242.849 106.237 242.972 105.489C243.086 104.778 243.081 104.118 242.958 103.507C242.835 102.892 242.572 102.397 242.17 102.023C241.767 101.644 241.201 101.455 240.472 101.455C239.705 101.455 239.035 101.653 238.462 102.051C237.894 102.449 237.435 102.972 237.084 103.621C236.734 104.269 236.5 104.968 236.381 105.716C236.268 106.426 236.27 107.087 236.388 107.697C236.511 108.304 236.774 108.794 237.177 109.168C237.584 109.537 238.152 109.722 238.881 109.722ZM252.56 100.091L252.332 101.511H246.452L246.679 100.091H252.56ZM246.622 111L248.696 98.5852C248.791 97.9602 249.018 97.4394 249.378 97.0227C249.742 96.6061 250.176 96.2936 250.678 96.0852C251.184 95.8769 251.698 95.7727 252.219 95.7727C252.631 95.7727 252.96 95.8059 253.206 95.8722C253.457 95.9384 253.639 96 253.753 96.0568L253.043 97.5057C252.957 97.4773 252.844 97.4418 252.702 97.3991C252.564 97.3565 252.375 97.3352 252.134 97.3352C251.58 97.3352 251.158 97.4749 250.869 97.7543C250.581 98.0336 250.386 98.4432 250.287 98.983L248.298 111H246.622ZM252.691 111L254.509 100.091H256.185L254.367 111H252.691ZM255.858 98.2443C255.532 98.2443 255.25 98.133 255.013 97.9105C254.781 97.688 254.665 97.4205 254.665 97.108C254.665 96.7955 254.781 96.5279 255.013 96.3054C255.25 96.0829 255.532 95.9716 255.858 95.9716C256.185 95.9716 256.464 96.0829 256.696 96.3054C256.933 96.5279 257.051 96.7955 257.051 97.108C257.051 97.4205 256.933 97.688 256.696 97.9105C256.464 98.133 256.185 98.2443 255.858 98.2443ZM266.184 102.534L264.594 102.96C264.537 102.705 264.437 102.458 264.295 102.222C264.158 101.98 263.945 101.784 263.656 101.632C263.372 101.476 262.984 101.398 262.491 101.398C261.824 101.398 261.244 101.552 260.751 101.859C260.259 102.162 259.977 102.548 259.906 103.017C259.835 103.429 259.93 103.758 260.19 104.004C260.451 104.25 260.886 104.452 261.497 104.608L263.059 105.006C263.997 105.247 264.665 105.609 265.062 106.092C265.465 106.571 265.602 107.193 265.474 107.96C265.37 108.585 265.098 109.144 264.657 109.636C264.217 110.129 263.654 110.517 262.967 110.801C262.281 111.085 261.516 111.227 260.673 111.227C259.551 111.227 258.666 110.986 258.017 110.503C257.368 110.015 257.023 109.31 256.98 108.386L258.656 107.989C258.699 108.571 258.907 109.011 259.281 109.31C259.66 109.603 260.19 109.75 260.872 109.75C261.653 109.75 262.304 109.584 262.825 109.253C263.346 108.917 263.642 108.514 263.713 108.045C263.784 107.662 263.708 107.342 263.486 107.087C263.268 106.831 262.889 106.639 262.349 106.511L260.616 106.085C259.65 105.844 258.973 105.474 258.585 104.977C258.201 104.48 258.074 103.855 258.201 103.102C258.306 102.487 258.571 101.942 258.997 101.469C259.428 100.995 259.968 100.624 260.616 100.354C261.27 100.084 261.98 99.9489 262.747 99.9489C263.826 99.9489 264.634 100.186 265.169 100.659C265.704 101.128 266.042 101.753 266.184 102.534ZM276.234 102.534L274.643 102.96C274.586 102.705 274.487 102.458 274.344 102.222C274.207 101.98 273.994 101.784 273.705 101.632C273.421 101.476 273.033 101.398 272.54 101.398C271.873 101.398 271.293 101.552 270.8 101.859C270.308 102.162 270.026 102.548 269.955 103.017C269.884 103.429 269.979 103.758 270.239 104.004C270.5 104.25 270.935 104.452 271.546 104.608L273.109 105.006C274.046 105.247 274.714 105.609 275.112 106.092C275.514 106.571 275.651 107.193 275.523 107.96C275.419 108.585 275.147 109.144 274.707 109.636C274.266 110.129 273.703 110.517 273.016 110.801C272.33 111.085 271.565 111.227 270.722 111.227C269.6 111.227 268.715 110.986 268.066 110.503C267.417 110.015 267.072 109.31 267.029 108.386L268.705 107.989C268.748 108.571 268.956 109.011 269.33 109.31C269.709 109.603 270.239 109.75 270.921 109.75C271.702 109.75 272.353 109.584 272.874 109.253C273.395 108.917 273.691 108.514 273.762 108.045C273.833 107.662 273.757 107.342 273.535 107.087C273.317 106.831 272.938 106.639 272.398 106.511L270.665 106.085C269.7 105.844 269.022 105.474 268.634 104.977C268.251 104.48 268.123 103.855 268.251 103.102C268.355 102.487 268.62 101.942 269.046 101.469C269.477 100.995 270.017 100.624 270.665 100.354C271.319 100.084 272.029 99.9489 272.796 99.9489C273.876 99.9489 274.683 100.186 275.218 100.659C275.753 101.128 276.092 101.753 276.234 102.534ZM277.135 111L278.953 100.091H280.629L278.811 111H277.135ZM280.303 98.2443C279.976 98.2443 279.694 98.133 279.458 97.9105C279.226 97.688 279.11 97.4205 279.11 97.108C279.11 96.7955 279.226 96.5279 279.458 96.3054C279.694 96.0829 279.976 95.9716 280.303 95.9716C280.629 95.9716 280.909 96.0829 281.141 96.3054C281.378 96.5279 281.496 96.7955 281.496 97.108C281.496 97.4205 281.378 97.688 281.141 97.9105C280.909 98.133 280.629 98.2443 280.303 98.2443ZM285.984 111.227C284.98 111.227 284.14 110.988 283.463 110.51C282.786 110.032 282.307 109.362 282.028 108.5C281.754 107.638 281.709 106.634 281.893 105.489C282.073 104.371 282.431 103.398 282.966 102.57C283.505 101.736 284.175 101.092 284.976 100.638C285.78 100.179 286.666 99.9489 287.632 99.9489C288.636 99.9489 289.474 100.19 290.146 100.673C290.823 101.152 291.301 101.824 291.581 102.69C291.86 103.552 291.907 104.561 291.723 105.716C291.543 106.824 291.181 107.792 290.636 108.621C290.096 109.445 289.426 110.086 288.626 110.545C287.831 111 286.95 111.227 285.984 111.227ZM286.012 109.722C286.78 109.722 287.445 109.525 288.008 109.132C288.576 108.739 289.036 108.221 289.386 107.577C289.741 106.933 289.98 106.237 290.103 105.489C290.217 104.778 290.212 104.118 290.089 103.507C289.966 102.892 289.703 102.397 289.301 102.023C288.898 101.644 288.333 101.455 287.603 101.455C286.836 101.455 286.166 101.653 285.593 102.051C285.025 102.449 284.566 102.972 284.216 103.621C283.865 104.269 283.631 104.968 283.512 105.716C283.399 106.426 283.401 107.087 283.52 107.697C283.643 108.304 283.905 108.794 284.308 109.168C284.715 109.537 285.283 109.722 286.012 109.722ZM295.771 104.438L294.691 111H293.015L294.833 100.091H296.452L296.168 101.795H296.31C296.651 101.241 297.113 100.796 297.695 100.46C298.278 100.119 298.981 99.9489 299.805 99.9489C300.534 99.9489 301.149 100.1 301.651 100.403C302.158 100.702 302.515 101.156 302.724 101.767C302.937 102.373 302.967 103.14 302.816 104.068L301.651 111H299.975L301.111 104.182C301.253 103.33 301.142 102.662 300.778 102.179C300.418 101.696 299.847 101.455 299.066 101.455C298.526 101.455 298.027 101.571 297.567 101.803C297.113 102.035 296.727 102.373 296.41 102.818C296.097 103.263 295.884 103.803 295.771 104.438ZM307.496 111.256C306.805 111.256 306.199 111.125 305.678 110.865C305.157 110.6 304.771 110.219 304.52 109.722C304.269 109.22 304.2 108.614 304.314 107.903C304.423 107.278 304.634 106.772 304.946 106.384C305.259 105.991 305.637 105.683 306.083 105.46C306.532 105.233 307.015 105.065 307.531 104.956C308.052 104.842 308.571 104.755 309.087 104.693C309.759 104.608 310.306 104.542 310.727 104.494C311.149 104.447 311.466 104.369 311.679 104.26C311.892 104.151 312.022 103.964 312.07 103.699V103.642C312.183 102.946 312.091 102.404 311.793 102.016C311.494 101.623 310.962 101.426 310.195 101.426C309.399 101.426 308.734 101.601 308.199 101.952C307.664 102.302 307.269 102.676 307.013 103.074L305.536 102.506C305.924 101.843 306.388 101.327 306.928 100.957C307.467 100.583 308.033 100.323 308.625 100.176C309.217 100.025 309.788 99.9489 310.337 99.9489C310.687 99.9489 311.083 99.9915 311.523 100.077C311.963 100.157 312.375 100.325 312.759 100.581C313.147 100.837 313.438 101.223 313.632 101.739C313.831 102.255 313.86 102.946 313.717 103.812L312.524 111H310.848L311.104 109.523H311.019C310.867 109.759 310.635 110.013 310.323 110.283C310.015 110.553 309.624 110.782 309.151 110.972C308.682 111.161 308.13 111.256 307.496 111.256ZM307.979 109.75C308.642 109.75 309.222 109.62 309.719 109.359C310.221 109.099 310.623 108.763 310.926 108.351C311.234 107.939 311.426 107.506 311.502 107.051L311.757 105.517C311.672 105.602 311.504 105.68 311.253 105.751C311.002 105.818 310.718 105.877 310.401 105.929C310.088 105.976 309.783 106.019 309.485 106.057C309.191 106.09 308.954 106.118 308.774 106.142C308.329 106.199 307.905 106.291 307.503 106.419C307.105 106.542 306.769 106.729 306.494 106.98C306.225 107.226 306.056 107.562 305.99 107.989C305.891 108.571 306.03 109.011 306.409 109.31C306.788 109.603 307.311 109.75 307.979 109.75ZM319.275 96.4545L316.86 111H315.184L317.598 96.4545H319.275ZM329.158 111.227C328.131 111.227 327.288 110.986 326.63 110.503C325.976 110.02 325.522 109.355 325.266 108.507C325.01 107.66 324.973 106.691 325.152 105.602C325.332 104.494 325.697 103.517 326.246 102.669C326.795 101.817 327.48 101.152 328.299 100.673C329.118 100.19 330.02 99.9489 331.005 99.9489C331.772 99.9489 332.439 100.091 333.008 100.375C333.576 100.659 334.014 101.057 334.321 101.568C334.629 102.08 334.774 102.676 334.755 103.358H333.079C333.031 102.861 332.818 102.42 332.439 102.037C332.065 101.649 331.511 101.455 330.777 101.455C330.124 101.455 329.523 101.625 328.973 101.966C328.424 102.302 327.963 102.778 327.589 103.393C327.214 104.004 326.961 104.722 326.829 105.545C326.687 106.388 326.698 107.122 326.864 107.747C327.03 108.372 327.33 108.857 327.766 109.203C328.202 109.549 328.751 109.722 329.414 109.722C329.849 109.722 330.257 109.646 330.635 109.494C331.014 109.343 331.35 109.125 331.644 108.841C331.937 108.557 332.169 108.216 332.34 107.818H334.016C333.808 108.462 333.474 109.042 333.015 109.558C332.555 110.07 331.999 110.477 331.346 110.78C330.692 111.078 329.963 111.227 329.158 111.227ZM340.029 111.227C339.026 111.227 338.185 110.988 337.508 110.51C336.831 110.032 336.353 109.362 336.073 108.5C335.799 107.638 335.754 106.634 335.938 105.489C336.118 104.371 336.476 103.398 337.011 102.57C337.551 101.736 338.221 101.092 339.021 100.638C339.826 100.179 340.711 99.9489 341.677 99.9489C342.681 99.9489 343.519 100.19 344.191 100.673C344.868 101.152 345.347 101.824 345.626 102.69C345.905 103.552 345.953 104.561 345.768 105.716C345.588 106.824 345.226 107.792 344.681 108.621C344.142 109.445 343.472 110.086 342.671 110.545C341.876 111 340.995 111.227 340.029 111.227ZM340.058 109.722C340.825 109.722 341.49 109.525 342.054 109.132C342.622 108.739 343.081 108.221 343.431 107.577C343.786 106.933 344.026 106.237 344.149 105.489C344.262 104.778 344.258 104.118 344.135 103.507C344.011 102.892 343.749 102.397 343.346 102.023C342.944 101.644 342.378 101.455 341.649 101.455C340.882 101.455 340.212 101.653 339.639 102.051C339.071 102.449 338.611 102.972 338.261 103.621C337.911 104.269 337.676 104.968 337.558 105.716C337.444 106.426 337.447 107.087 337.565 107.697C337.688 108.304 337.951 108.794 338.353 109.168C338.76 109.537 339.329 109.722 340.058 109.722ZM347.06 111L348.878 100.091H350.498L350.214 101.795H350.356C350.682 101.213 351.125 100.761 351.684 100.439C352.247 100.112 352.884 99.9489 353.594 99.9489C354.304 99.9489 354.875 100.112 355.306 100.439C355.737 100.761 356.037 101.213 356.208 101.795H356.322C356.691 101.227 357.183 100.777 357.799 100.446C358.419 100.115 359.12 99.9489 359.901 99.9489C360.867 99.9489 361.61 100.254 362.131 100.865C362.657 101.476 362.813 102.42 362.6 103.699L361.378 111H359.702L360.924 103.699C361.052 102.889 360.924 102.314 360.54 101.973C360.161 101.627 359.674 101.455 359.077 101.455C358.31 101.455 357.678 101.684 357.181 102.143C356.684 102.603 356.378 103.187 356.265 103.898L355.072 111H353.367L354.617 103.528C354.716 102.903 354.598 102.402 354.262 102.023C353.926 101.644 353.438 101.455 352.799 101.455C352.363 101.455 351.937 101.573 351.52 101.81C351.104 102.042 350.746 102.364 350.448 102.776C350.15 103.183 349.958 103.652 349.873 104.182L348.736 111H347.06ZM61.3864 139.091L62.3381 133.324H62.196C62.0398 133.523 61.822 133.774 61.5426 134.077C61.268 134.375 60.901 134.643 60.4418 134.879C59.9825 135.111 59.4025 135.227 58.7017 135.227C57.7926 135.227 57.0279 134.998 56.4077 134.538C55.7874 134.074 55.3518 133.421 55.1009 132.578C54.8499 131.731 54.8191 130.729 55.0085 129.574C55.1979 128.428 55.5578 127.434 56.0881 126.591C56.6184 125.748 57.2718 125.097 58.0483 124.638C58.8248 124.179 59.6723 123.949 60.5909 123.949C61.3011 123.949 61.8433 124.067 62.2173 124.304C62.5961 124.536 62.8707 124.801 63.0412 125.099C63.2116 125.393 63.3419 125.634 63.4318 125.824H63.6307L63.929 124.091H65.5483L63.0625 139.091H61.3864ZM59.1705 133.722C59.8475 133.722 60.4465 133.546 60.9673 133.196C61.4929 132.841 61.9261 132.351 62.267 131.726C62.6127 131.096 62.8542 130.369 62.9915 129.545C63.1288 128.731 63.1288 128.018 62.9915 127.408C62.8542 126.792 62.5819 126.314 62.1747 125.973C61.7723 125.627 61.2301 125.455 60.5483 125.455C59.8381 125.455 59.2154 125.637 58.6804 126.001C58.1501 126.361 57.7169 126.851 57.3807 127.472C57.0445 128.087 56.8125 128.778 56.6847 129.545C56.5568 130.322 56.5592 131.027 56.6918 131.662C56.8291 132.292 57.1013 132.794 57.5085 133.168C57.9205 133.537 58.4744 133.722 59.1705 133.722ZM74.0066 130.54L75.0862 124.091H76.7623L74.9441 135H73.268L73.5805 133.153H73.4668C73.1259 133.707 72.6501 134.179 72.0393 134.567C71.4285 134.95 70.7112 135.142 69.8873 135.142C69.2055 135.142 68.6231 134.993 68.1401 134.695C67.6619 134.392 67.321 133.937 67.1174 133.331C66.9185 132.72 66.8949 131.951 67.0464 131.023L68.2112 124.091H69.8873L68.7509 130.909C68.6231 131.705 68.7438 132.339 69.1131 132.812C69.4825 133.286 70.0151 133.523 70.7112 133.523C71.1278 133.523 71.5682 133.416 72.0322 133.203C72.5009 132.99 72.9176 132.663 73.2822 132.223C73.6515 131.783 73.893 131.222 74.0066 130.54ZM80.7959 135.256C80.1046 135.256 79.4985 135.125 78.9777 134.865C78.4569 134.6 78.071 134.219 77.82 133.722C77.5691 133.22 77.5004 132.614 77.6141 131.903C77.723 131.278 77.9337 130.772 78.2462 130.384C78.5587 129.991 78.9375 129.683 79.3825 129.46C79.8323 129.233 80.3153 129.065 80.8314 128.956C81.3522 128.842 81.8707 128.755 82.3868 128.693C83.0591 128.608 83.606 128.542 84.0274 128.494C84.4488 128.447 84.7661 128.369 84.9791 128.26C85.1922 128.151 85.3224 127.964 85.3697 127.699V127.642C85.4834 126.946 85.3911 126.404 85.0928 126.016C84.7945 125.623 84.2618 125.426 83.4947 125.426C82.6993 125.426 82.034 125.601 81.499 125.952C80.964 126.302 80.5686 126.676 80.3129 127.074L78.8357 126.506C79.2239 125.843 79.6879 125.327 80.2277 124.957C80.7675 124.583 81.3333 124.323 81.9251 124.176C82.517 124.025 83.0875 123.949 83.6368 123.949C83.9872 123.949 84.3825 123.991 84.8229 124.077C85.2632 124.157 85.6751 124.325 86.0587 124.581C86.4469 124.837 86.7381 125.223 86.9322 125.739C87.1311 126.255 87.1595 126.946 87.0175 127.812L85.8243 135H84.1482L84.4038 133.523H84.3186C84.1671 133.759 83.9351 134.013 83.6226 134.283C83.3148 134.553 82.9242 134.782 82.4507 134.972C81.982 135.161 81.4304 135.256 80.7959 135.256ZM81.2788 133.75C81.9417 133.75 82.5217 133.62 83.0189 133.359C83.5208 133.099 83.9232 132.763 84.2263 132.351C84.534 131.939 84.7258 131.506 84.8016 131.051L85.0572 129.517C84.972 129.602 84.8039 129.68 84.553 129.751C84.302 129.818 84.0179 129.877 83.7007 129.929C83.3882 129.976 83.0828 130.019 82.7845 130.057C82.491 130.09 82.2542 130.118 82.0743 130.142C81.6292 130.199 81.2054 130.291 80.803 130.419C80.4053 130.542 80.0691 130.729 79.7945 130.98C79.5246 131.226 79.3565 131.562 79.2902 131.989C79.1908 132.571 79.3304 133.011 79.7092 133.31C80.088 133.603 80.6112 133.75 81.2788 133.75ZM92.5745 120.455L90.1597 135H88.4836L90.8984 120.455H92.5745ZM92.8297 135L94.6479 124.091H96.324L94.5058 135H92.8297ZM95.9973 122.244C95.6706 122.244 95.3889 122.133 95.1521 121.911C94.9201 121.688 94.8041 121.42 94.8041 121.108C94.8041 120.795 94.9201 120.528 95.1521 120.305C95.3889 120.083 95.6706 119.972 95.9973 119.972C96.324 119.972 96.6034 120.083 96.8354 120.305C97.0721 120.528 97.1905 120.795 97.1905 121.108C97.1905 121.42 97.0721 121.688 96.8354 121.911C96.6034 122.133 96.324 122.244 95.9973 122.244ZM101.281 135.227C100.367 135.227 99.6 134.998 98.9798 134.538C98.3595 134.074 97.9215 133.421 97.6658 132.578C97.4149 131.731 97.3841 130.729 97.5735 129.574C97.7676 128.428 98.1299 127.434 98.6602 126.591C99.1952 125.748 99.851 125.097 100.627 124.638C101.404 124.179 102.252 123.949 103.17 123.949C103.88 123.949 104.422 124.067 104.797 124.304C105.175 124.536 105.45 124.801 105.62 125.099C105.791 125.393 105.921 125.634 106.011 125.824H106.153L107.048 120.455H108.724L106.309 135H104.69L104.974 133.324H104.775C104.619 133.523 104.401 133.774 104.122 134.077C103.842 134.375 103.473 134.643 103.014 134.879C102.559 135.111 101.982 135.227 101.281 135.227ZM101.693 133.722C102.365 133.722 102.967 133.546 103.497 133.196C104.032 132.841 104.477 132.351 104.832 131.726C105.187 131.096 105.433 130.369 105.571 129.545C105.708 128.731 105.703 128.018 105.556 127.408C105.41 126.792 105.128 126.314 104.711 125.973C104.295 125.627 103.743 125.455 103.056 125.455C102.351 125.455 101.738 125.637 101.217 126.001C100.696 126.361 100.272 126.851 99.9457 127.472C99.619 128.087 99.3917 128.778 99.2638 129.545C99.136 130.322 99.1336 131.027 99.2567 131.662C99.3799 132.292 99.6403 132.794 100.038 133.168C100.44 133.537 100.992 133.722 101.693 133.722ZM112.379 135.256C111.688 135.256 111.082 135.125 110.561 134.865C110.04 134.6 109.655 134.219 109.404 133.722C109.153 133.22 109.084 132.614 109.198 131.903C109.307 131.278 109.517 130.772 109.83 130.384C110.142 129.991 110.521 129.683 110.966 129.46C111.416 129.233 111.899 129.065 112.415 128.956C112.936 128.842 113.454 128.755 113.97 128.693C114.643 128.608 115.19 128.542 115.611 128.494C116.032 128.447 116.35 128.369 116.563 128.26C116.776 128.151 116.906 127.964 116.953 127.699V127.642C117.067 126.946 116.975 126.404 116.676 126.016C116.378 125.623 115.845 125.426 115.078 125.426C114.283 125.426 113.618 125.601 113.083 125.952C112.548 126.302 112.152 126.676 111.897 127.074L110.419 126.506C110.808 125.843 111.272 125.327 111.811 124.957C112.351 124.583 112.917 124.323 113.509 124.176C114.101 124.025 114.671 123.949 115.22 123.949C115.571 123.949 115.966 123.991 116.406 124.077C116.847 124.157 117.259 124.325 117.642 124.581C118.031 124.837 118.322 125.223 118.516 125.739C118.715 126.255 118.743 126.946 118.601 127.812L117.408 135H115.732L115.987 133.523H115.902C115.751 133.759 115.519 134.013 115.206 134.283C114.898 134.553 114.508 134.782 114.034 134.972C113.566 135.161 113.014 135.256 112.379 135.256ZM112.862 133.75C113.525 133.75 114.105 133.62 114.602 133.359C115.104 133.099 115.507 132.763 115.81 132.351C116.118 131.939 116.309 131.506 116.385 131.051L116.641 129.517C116.556 129.602 116.388 129.68 116.137 129.751C115.886 129.818 115.602 129.877 115.284 129.929C114.972 129.976 114.666 130.019 114.368 130.057C114.075 130.09 113.838 130.118 113.658 130.142C113.213 130.199 112.789 130.291 112.387 130.419C111.989 130.542 111.653 130.729 111.378 130.98C111.108 131.226 110.94 131.562 110.874 131.989C110.774 132.571 110.914 133.011 111.293 133.31C111.672 133.603 112.195 133.75 112.862 133.75ZM124.172 135.227C123.258 135.227 122.491 134.998 121.871 134.538C121.251 134.074 120.813 133.421 120.557 132.578C120.306 131.731 120.276 130.729 120.465 129.574C120.659 128.428 121.021 127.434 121.552 126.591C122.087 125.748 122.742 125.097 123.519 124.638C124.295 124.179 125.143 123.949 126.062 123.949C126.772 123.949 127.314 124.067 127.688 124.304C128.067 124.536 128.341 124.801 128.512 125.099C128.682 125.393 128.812 125.634 128.902 125.824H129.044L129.939 120.455H131.615L129.201 135H127.581L127.865 133.324H127.667C127.51 133.523 127.293 133.774 127.013 134.077C126.734 134.375 126.365 134.643 125.905 134.879C125.451 135.111 124.873 135.227 124.172 135.227ZM124.584 133.722C125.257 133.722 125.858 133.546 126.388 133.196C126.923 132.841 127.368 132.351 127.723 131.726C128.079 131.096 128.325 130.369 128.462 129.545C128.599 128.731 128.595 128.018 128.448 127.408C128.301 126.792 128.019 126.314 127.603 125.973C127.186 125.627 126.634 125.455 125.948 125.455C125.242 125.455 124.629 125.637 124.108 126.001C123.588 126.361 123.164 126.851 122.837 127.472C122.51 128.087 122.283 128.778 122.155 129.545C122.027 130.322 122.025 131.027 122.148 131.662C122.271 132.292 122.532 132.794 122.929 133.168C123.332 133.537 123.883 133.722 124.584 133.722ZM136.635 135.227C135.588 135.227 134.724 134.995 134.042 134.531C133.36 134.062 132.885 133.409 132.615 132.571C132.345 131.728 132.302 130.748 132.487 129.631C132.671 128.513 133.038 127.528 133.588 126.676C134.137 125.819 134.821 125.152 135.64 124.673C136.459 124.19 137.359 123.949 138.339 123.949C138.907 123.949 139.454 124.044 139.98 124.233C140.505 124.422 140.96 124.73 141.343 125.156C141.727 125.578 141.994 126.136 142.146 126.832C142.297 127.528 142.288 128.385 142.117 129.403L142.004 130.114H133.595L133.822 128.665H140.527C140.635 128.049 140.607 127.5 140.441 127.017C140.28 126.534 139.999 126.153 139.596 125.874C139.198 125.594 138.694 125.455 138.083 125.455C137.454 125.455 136.867 125.625 136.322 125.966C135.778 126.302 135.323 126.728 134.958 127.244C134.594 127.756 134.367 128.277 134.277 128.807L134.078 130.057C133.936 130.961 133.957 131.681 134.142 132.216C134.331 132.751 134.66 133.137 135.129 133.374C135.598 133.606 136.185 133.722 136.89 133.722C137.34 133.722 137.754 133.66 138.133 133.537C138.512 133.409 138.85 133.22 139.149 132.969C139.447 132.713 139.698 132.396 139.902 132.017L141.436 132.472C141.175 133.021 140.808 133.504 140.335 133.92C139.866 134.332 139.317 134.654 138.687 134.886C138.062 135.114 137.378 135.227 136.635 135.227ZM153.139 135.227C152.093 135.227 151.229 134.995 150.547 134.531C149.865 134.062 149.389 133.409 149.119 132.571C148.849 131.728 148.807 130.748 148.991 129.631C149.176 128.513 149.543 127.528 150.092 126.676C150.642 125.819 151.326 125.152 152.145 124.673C152.964 124.19 153.864 123.949 154.844 123.949C155.412 123.949 155.959 124.044 156.484 124.233C157.01 124.422 157.464 124.73 157.848 125.156C158.232 125.578 158.499 126.136 158.651 126.832C158.802 127.528 158.793 128.385 158.622 129.403L158.509 130.114H150.099L150.327 128.665H157.031C157.14 128.049 157.112 127.5 156.946 127.017C156.785 126.534 156.503 126.153 156.101 125.874C155.703 125.594 155.199 125.455 154.588 125.455C153.958 125.455 153.371 125.625 152.827 125.966C152.282 126.302 151.828 126.728 151.463 127.244C151.098 127.756 150.871 128.277 150.781 128.807L150.582 130.057C150.44 130.961 150.462 131.681 150.646 132.216C150.836 132.751 151.165 133.137 151.634 133.374C152.102 133.606 152.689 133.722 153.395 133.722C153.845 133.722 154.259 133.66 154.638 133.537C155.017 133.409 155.355 133.22 155.653 132.969C155.952 132.713 156.203 132.396 156.406 132.017L157.94 132.472C157.68 133.021 157.313 133.504 156.839 133.92C156.371 134.332 155.821 134.654 155.192 134.886C154.567 135.114 153.883 135.227 153.139 135.227ZM171.775 124.091L171.547 125.511H165.667L165.894 124.091H171.775ZM165.837 135L167.911 122.585C168.006 121.96 168.233 121.439 168.593 121.023C168.957 120.606 169.391 120.294 169.892 120.085C170.399 119.877 170.913 119.773 171.434 119.773C171.846 119.773 172.175 119.806 172.421 119.872C172.672 119.938 172.854 120 172.968 120.057L172.258 121.506C172.172 121.477 172.059 121.442 171.917 121.399C171.779 121.357 171.59 121.335 171.348 121.335C170.794 121.335 170.373 121.475 170.084 121.754C169.795 122.034 169.601 122.443 169.502 122.983L167.513 135H165.837ZM174.775 135.256C174.084 135.256 173.477 135.125 172.957 134.865C172.436 134.6 172.05 134.219 171.799 133.722C171.548 133.22 171.479 132.614 171.593 131.903C171.702 131.278 171.913 130.772 172.225 130.384C172.538 129.991 172.916 129.683 173.361 129.46C173.811 129.233 174.294 129.065 174.81 128.956C175.331 128.842 175.85 128.755 176.366 128.693C177.038 128.608 177.585 128.542 178.006 128.494C178.428 128.447 178.745 128.369 178.958 128.26C179.171 128.151 179.301 127.964 179.349 127.699V127.642C179.462 126.946 179.37 126.404 179.072 126.016C178.773 125.623 178.241 125.426 177.474 125.426C176.678 125.426 176.013 125.601 175.478 125.952C174.943 126.302 174.548 126.676 174.292 127.074L172.815 126.506C173.203 125.843 173.667 125.327 174.207 124.957C174.746 124.583 175.312 124.323 175.904 124.176C176.496 124.025 177.066 123.949 177.616 123.949C177.966 123.949 178.361 123.991 178.802 124.077C179.242 124.157 179.654 124.325 180.038 124.581C180.426 124.837 180.717 125.223 180.911 125.739C181.11 126.255 181.138 126.946 180.996 127.812L179.803 135H178.127L178.383 133.523H178.298C178.146 133.759 177.914 134.013 177.601 134.283C177.294 134.553 176.903 134.782 176.43 134.972C175.961 135.161 175.409 135.256 174.775 135.256ZM175.258 133.75C175.921 133.75 176.501 133.62 176.998 133.359C177.5 133.099 177.902 132.763 178.205 132.351C178.513 131.939 178.705 131.506 178.78 131.051L179.036 129.517C178.951 129.602 178.783 129.68 178.532 129.751C178.281 129.818 177.997 129.877 177.68 129.929C177.367 129.976 177.062 130.019 176.763 130.057C176.47 130.09 176.233 130.118 176.053 130.142C175.608 130.199 175.184 130.291 174.782 130.419C174.384 130.542 174.048 130.729 173.773 130.98C173.503 131.226 173.335 131.562 173.269 131.989C173.17 132.571 173.309 133.011 173.688 133.31C174.067 133.603 174.59 133.75 175.258 133.75ZM186.866 135.227C185.838 135.227 184.996 134.986 184.338 134.503C183.684 134.02 183.23 133.355 182.974 132.507C182.718 131.66 182.68 130.691 182.86 129.602C183.04 128.494 183.405 127.517 183.954 126.669C184.503 125.817 185.187 125.152 186.007 124.673C186.826 124.19 187.728 123.949 188.713 123.949C189.48 123.949 190.147 124.091 190.715 124.375C191.284 124.659 191.721 125.057 192.029 125.568C192.337 126.08 192.481 126.676 192.463 127.358H190.786C190.739 126.861 190.526 126.42 190.147 126.037C189.773 125.649 189.219 125.455 188.485 125.455C187.832 125.455 187.23 125.625 186.681 125.966C186.132 126.302 185.67 126.778 185.296 127.393C184.922 128.004 184.669 128.722 184.536 129.545C184.394 130.388 184.406 131.122 184.572 131.747C184.738 132.372 185.038 132.857 185.474 133.203C185.909 133.549 186.459 133.722 187.122 133.722C187.557 133.722 187.964 133.646 188.343 133.494C188.722 133.343 189.058 133.125 189.352 132.841C189.645 132.557 189.877 132.216 190.048 131.818H191.724C191.516 132.462 191.182 133.042 190.722 133.558C190.263 134.07 189.707 134.477 189.053 134.78C188.4 135.078 187.671 135.227 186.866 135.227ZM193.234 135L195.053 124.091H196.729L194.911 135H193.234ZM196.402 122.244C196.075 122.244 195.794 122.133 195.557 121.911C195.325 121.688 195.209 121.42 195.209 121.108C195.209 120.795 195.325 120.528 195.557 120.305C195.794 120.083 196.075 119.972 196.402 119.972C196.729 119.972 197.008 120.083 197.24 120.305C197.477 120.528 197.595 120.795 197.595 121.108C197.595 121.42 197.477 121.688 197.24 121.911C197.008 122.133 196.729 122.244 196.402 122.244ZM201.671 120.455L199.257 135H197.58L199.995 120.455H201.671ZM201.927 135L203.745 124.091H205.421L203.603 135H201.927ZM205.094 122.244C204.767 122.244 204.486 122.133 204.249 121.911C204.017 121.688 203.901 121.42 203.901 121.108C203.901 120.795 204.017 120.528 204.249 120.305C204.486 120.083 204.767 119.972 205.094 119.972C205.421 119.972 205.7 120.083 205.932 120.305C206.169 120.528 206.287 120.795 206.287 121.108C206.287 121.42 206.169 121.688 205.932 121.911C205.7 122.133 205.421 122.244 205.094 122.244ZM210.378 135.227C209.464 135.227 208.697 134.998 208.077 134.538C207.456 134.074 207.018 133.421 206.763 132.578C206.512 131.731 206.481 130.729 206.67 129.574C206.865 128.428 207.227 127.434 207.757 126.591C208.292 125.748 208.948 125.097 209.724 124.638C210.501 124.179 211.348 123.949 212.267 123.949C212.977 123.949 213.519 124.067 213.893 124.304C214.272 124.536 214.547 124.801 214.717 125.099C214.888 125.393 215.018 125.634 215.108 125.824H215.25L216.145 120.455H217.821L215.406 135H213.787L214.071 133.324H213.872C213.716 133.523 213.498 133.774 213.219 134.077C212.939 134.375 212.57 134.643 212.111 134.879C211.656 135.111 211.079 135.227 210.378 135.227ZM210.79 133.722C211.462 133.722 212.063 133.546 212.594 133.196C213.129 132.841 213.574 132.351 213.929 131.726C214.284 131.096 214.53 130.369 214.668 129.545C214.805 128.731 214.8 128.018 214.653 127.408C214.507 126.792 214.225 126.314 213.808 125.973C213.392 125.627 212.84 125.455 212.153 125.455C211.448 125.455 210.835 125.637 210.314 126.001C209.793 126.361 209.369 126.851 209.043 127.472C208.716 128.087 208.489 128.778 208.361 129.545C208.233 130.322 208.231 131.027 208.354 131.662C208.477 132.292 208.737 132.794 209.135 133.168C209.537 133.537 210.089 133.722 210.79 133.722ZM221.476 135.256C220.785 135.256 220.179 135.125 219.658 134.865C219.137 134.6 218.751 134.219 218.5 133.722C218.25 133.22 218.181 132.614 218.295 131.903C218.403 131.278 218.614 130.772 218.927 130.384C219.239 129.991 219.618 129.683 220.063 129.46C220.513 129.233 220.996 129.065 221.512 128.956C222.033 128.842 222.551 128.755 223.067 128.693C223.74 128.608 224.286 128.542 224.708 128.494C225.129 128.447 225.447 128.369 225.66 128.26C225.873 128.151 226.003 127.964 226.05 127.699V127.642C226.164 126.946 226.072 126.404 225.773 126.016C225.475 125.623 224.942 125.426 224.175 125.426C223.38 125.426 222.715 125.601 222.179 125.952C221.644 126.302 221.249 126.676 220.993 127.074L219.516 126.506C219.904 125.843 220.368 125.327 220.908 124.957C221.448 124.583 222.014 124.323 222.606 124.176C223.197 124.025 223.768 123.949 224.317 123.949C224.668 123.949 225.063 123.991 225.503 124.077C225.944 124.157 226.356 124.325 226.739 124.581C227.127 124.837 227.419 125.223 227.613 125.739C227.812 126.255 227.84 126.946 227.698 127.812L226.505 135H224.829L225.084 133.523H224.999C224.848 133.759 224.616 134.013 224.303 134.283C223.995 134.553 223.605 134.782 223.131 134.972C222.662 135.161 222.111 135.256 221.476 135.256ZM221.959 133.75C222.622 133.75 223.202 133.62 223.699 133.359C224.201 133.099 224.604 132.763 224.907 132.351C225.215 131.939 225.406 131.506 225.482 131.051L225.738 129.517C225.652 129.602 225.484 129.68 225.233 129.751C224.982 129.818 224.698 129.877 224.381 129.929C224.069 129.976 223.763 130.019 223.465 130.057C223.171 130.09 222.935 130.118 222.755 130.142C222.31 130.199 221.886 130.291 221.483 130.419C221.086 130.542 220.75 130.729 220.475 130.98C220.205 131.226 220.037 131.562 219.971 131.989C219.871 132.571 220.011 133.011 220.39 133.31C220.768 133.603 221.292 133.75 221.959 133.75ZM233.269 135.227C232.355 135.227 231.588 134.998 230.968 134.538C230.348 134.074 229.91 133.421 229.654 132.578C229.403 131.731 229.372 130.729 229.562 129.574C229.756 128.428 230.118 127.434 230.648 126.591C231.183 125.748 231.839 125.097 232.616 124.638C233.392 124.179 234.24 123.949 235.158 123.949C235.869 123.949 236.411 124.067 236.785 124.304C237.164 124.536 237.438 124.801 237.609 125.099C237.779 125.393 237.909 125.634 237.999 125.824H238.141L239.036 120.455H240.712L238.298 135H236.678L236.962 133.324H236.763C236.607 133.523 236.389 133.774 236.11 134.077C235.831 134.375 235.461 134.643 235.002 134.879C234.548 135.111 233.97 135.227 233.269 135.227ZM233.681 133.722C234.353 133.722 234.955 133.546 235.485 133.196C236.02 132.841 236.465 132.351 236.82 131.726C237.175 131.096 237.422 130.369 237.559 129.545C237.696 128.731 237.692 128.018 237.545 127.408C237.398 126.792 237.116 126.314 236.7 125.973C236.283 125.627 235.731 125.455 235.045 125.455C234.339 125.455 233.726 125.637 233.205 126.001C232.684 126.361 232.261 126.851 231.934 127.472C231.607 128.087 231.38 128.778 231.252 129.545C231.124 130.322 231.122 131.027 231.245 131.662C231.368 132.292 231.629 132.794 232.026 133.168C232.429 133.537 232.98 133.722 233.681 133.722ZM245.731 135.227C244.685 135.227 243.821 134.995 243.139 134.531C242.457 134.062 241.981 133.409 241.712 132.571C241.442 131.728 241.399 130.748 241.584 129.631C241.768 128.513 242.135 127.528 242.685 126.676C243.234 125.819 243.918 125.152 244.737 124.673C245.556 124.19 246.456 123.949 247.436 123.949C248.004 123.949 248.551 124.044 249.077 124.233C249.602 124.422 250.057 124.73 250.44 125.156C250.824 125.578 251.091 126.136 251.243 126.832C251.394 127.528 251.385 128.385 251.214 129.403L251.101 130.114H242.692L242.919 128.665H249.623C249.732 128.049 249.704 127.5 249.538 127.017C249.377 126.534 249.096 126.153 248.693 125.874C248.295 125.594 247.791 125.455 247.18 125.455C246.551 125.455 245.963 125.625 245.419 125.966C244.874 126.302 244.42 126.728 244.055 127.244C243.691 127.756 243.463 128.277 243.373 128.807L243.175 130.057C243.033 130.961 243.054 131.681 243.239 132.216C243.428 132.751 243.757 133.137 244.226 133.374C244.694 133.606 245.282 133.722 245.987 133.722C246.437 133.722 246.851 133.66 247.23 133.537C247.609 133.409 247.947 133.22 248.246 132.969C248.544 132.713 248.795 132.396 248.998 132.017L250.533 132.472C250.272 133.021 249.905 133.504 249.432 133.92C248.963 134.332 248.414 134.654 247.784 134.886C247.159 135.114 246.475 135.227 245.731 135.227Z" fill="#3B82F6"/>
<circle cx="546" cy="-26" r="116" fill="#3B82F6"/>
<circle cx="42" cy="285" r="105" fill="#3B82F6"/>
<rect x="703.644" y="140" width="227" height="294" rx="25" transform="rotate(26.1656 703.644 140)" fill="#3B82F6"/>
</g>
<defs>
<clipPath id="clip0_6_15">
<rect width="859" height="300" fill="white"/>
</clipPath>
</defs>
</svg>
